<svg width="24" height="24" viewBox="0 0 24 24" fill="none" xmlns="http://www.w3.org/2000/svg">
<g id="Calender">
<g id="Calender_2">
<path id="Rectangle 1823 (Stroke)" fill-rule="evenodd" clip-rule="evenodd" d="M4 6.52539H19.2632V19.4991H4V6.52539ZM5.52632 8.05171V17.9728H17.7368V8.05171H5.52632Z" fill="#147EE4"/>
<path id="Line 81 (Stroke)" fill-rule="evenodd" clip-rule="evenodd" d="M7.05279 8.81579L7.05279 5L8.5791 5L8.5791 8.81579L7.05279 8.81579Z" fill="#147EE4"/>
<path id="Line 82 (Stroke)" fill-rule="evenodd" clip-rule="evenodd" d="M18.4995 11.8681L4.7627 11.8681L4.7627 10.3418L18.4995 10.3418L18.4995 11.8681Z" fill="#147EE4"/>
<path id="Line 83 (Stroke)" fill-rule="evenodd" clip-rule="evenodd" d="M14.6845 15.6845L13.1582 15.6845L13.1582 14.1582L14.6845 14.1582L14.6845 15.6845Z" fill="#147EE4"/>
<path id="Line 84 (Stroke)" fill-rule="evenodd" clip-rule="evenodd" d="M12.3945 15.6845L10.8682 15.6845L10.8682 14.1582L12.3945 14.1582L12.3945 15.6845Z" fill="#147EE4"/>
<path id="Line 85 (Stroke)" fill-rule="evenodd" clip-rule="evenodd" d="M10.1054 15.6845L8.5791 15.6845L8.5791 14.1582L10.1054 14.1582L10.1054 15.6845Z" fill="#147EE4"/>
<path id="Line 86 (Stroke)" fill-rule="evenodd" clip-rule="evenodd" d="M14.6846 8.81579L14.6846 5L16.2109 5L16.2109 8.81579L14.6846 8.81579Z" fill="#147EE4"/>
</g>
</g>
</svg>
