<svg width="27" height="30" viewBox="0 0 27 30" fill="none" xmlns="http://www.w3.org/2000/svg">
<g id="Group">
<path id="Vector" d="M15.0237 20.771C14.3701 20.8213 13.7236 20.9304 13.0912 21.0972L9.8457 21.9668L12.968 25.963C13.3829 26.4942 13.9724 26.8358 14.6071 26.9125C15.2418 26.9893 15.8696 26.795 16.3527 26.3724C16.5917 26.1628 16.7879 25.9033 16.93 25.609C17.0722 25.3146 17.1574 24.991 17.1809 24.6567C17.2044 24.3224 17.1657 23.984 17.067 23.6608C16.9683 23.3376 16.8116 23.036 16.6057 22.7732L15.0237 20.771Z" fill="#2A2723"/>
<path id="Vector_2" d="M19.6433 0.218843C19.4371 0.207061 19.2353 0.266365 19.0679 0.387969C18.9004 0.509573 18.7761 0.687007 18.7135 0.893985C17.978 2.93755 16.7973 4.75088 15.266 6.18868C13.7348 7.62649 11.8955 8.6488 9.8956 9.17371L6.20752 10.1619C4.98485 10.4895 3.9525 11.3272 3.33759 12.4905C2.72268 13.6539 2.57558 15.0477 2.92864 16.3654C3.2817 17.683 4.106 18.8165 5.22021 19.5166C6.33443 20.2166 7.64728 20.4259 8.86995 20.0983L12.558 19.11C14.5525 18.5647 16.6565 18.5304 18.7015 19.0099C20.7465 19.4895 22.6756 20.4695 24.3344 21.8716C24.4551 21.9848 24.5991 22.0656 24.7535 22.1067C24.908 22.1478 25.0681 22.148 25.2197 22.1072C25.3107 22.0819 25.3974 22.0428 25.4772 21.9913C25.6494 21.8786 25.7811 21.7084 25.8528 21.5059C25.9245 21.3035 25.9324 21.0793 25.8755 20.8665L20.5506 0.993841C20.4935 0.78107 20.3746 0.590932 20.2112 0.451416C20.0479 0.3119 19.8488 0.230376 19.6433 0.218843Z" fill="#4BA0DE"/>
</g>
</svg>
