<svg width="28" height="28" viewBox="0 0 28 28" fill="none" xmlns="http://www.w3.org/2000/svg">
<g id="Memo">
<g id="Vector">
<path fill-rule="evenodd" clip-rule="evenodd" d="M4.66699 3.50065H23.3337V25.6673H4.66699V3.50065ZM7.00033 5.83398V23.334H21.0003V5.83398H7.00033Z" fill="#9E9E9E"/>
<path fill-rule="evenodd" clip-rule="evenodd" d="M8.16699 7.00065L8.16699 2.33398L10.5003 2.33398V7.00065H8.16699Z" fill="#9E9E9E"/>
<path fill-rule="evenodd" clip-rule="evenodd" d="M12.8337 7.00065V2.33398L15.167 2.33398V7.00065H12.8337Z" fill="#9E9E9E"/>
<path fill-rule="evenodd" clip-rule="evenodd" d="M19.8337 11.6673L12.8337 11.6673L12.8337 9.33398L19.8337 9.33399V11.6673Z" fill="#9E9E9E"/>
<path fill-rule="evenodd" clip-rule="evenodd" d="M19.8337 16.334L12.8337 16.334L12.8337 14.0007L19.8337 14.0007V16.334Z" fill="#9E9E9E"/>
<path fill-rule="evenodd" clip-rule="evenodd" d="M19.8337 21.0007L12.8337 21.0007L12.8337 18.6673L19.8337 18.6673V21.0007Z" fill="#9E9E9E"/>
<path fill-rule="evenodd" clip-rule="evenodd" d="M10.5003 21.0007L8.16699 21.0007L8.167 18.6673L10.5003 18.6673L10.5003 21.0007Z" fill="#9E9E9E"/>
<path fill-rule="evenodd" clip-rule="evenodd" d="M10.5003 16.334L8.16699 16.334L8.167 14.0007L10.5003 14.0007L10.5003 16.334Z" fill="#9E9E9E"/>
<path fill-rule="evenodd" clip-rule="evenodd" d="M10.5003 11.6673L8.16699 11.6673L8.167 9.33398L10.5003 9.33399L10.5003 11.6673Z" fill="#9E9E9E"/>
<path fill-rule="evenodd" clip-rule="evenodd" d="M17.5003 7.00065V2.33398L19.8337 2.33398V7.00065H17.5003Z" fill="#9E9E9E"/>
</g>
</g>
</svg>
