<svg width="22" height="24" viewBox="0 0 22 24" fill="none" xmlns="http://www.w3.org/2000/svg">
<g id="Person">
<path id="Rectangle 828 (Stroke)" fill-rule="evenodd" clip-rule="evenodd" d="M0.533203 14.4883H21.7332V23.9105H19.3776V16.8438H2.88876V23.9105H0.533203V14.4883Z" fill="#ED7B01"/>
<path id="Ellipse 3 (Stroke)" fill-rule="evenodd" clip-rule="evenodd" d="M11.133 2.71102C9.18162 2.71102 7.5997 4.29295 7.5997 6.24436C7.5997 8.19576 9.18162 9.77769 11.133 9.77769C13.0844 9.77769 14.6664 8.19576 14.6664 6.24436C14.6664 4.29295 13.0844 2.71102 11.133 2.71102ZM5.24414 6.24436C5.24414 2.99201 7.88069 0.355469 11.133 0.355469C14.3854 0.355469 17.0219 2.99201 17.0219 6.24436C17.0219 9.4967 14.3854 12.1332 11.133 12.1332C7.88069 12.1332 5.24414 9.4967 5.24414 6.24436Z" fill="#ED7B01"/>
</g>
</svg>
