<svg xmlns="http://www.w3.org/2000/svg" width="20" height="21" viewBox="0 0 20 21" fill="none">
  <path fill-rule="evenodd" clip-rule="evenodd" d="M0.00390625 0.503906H19.997V20.497H0.00390625V0.503906ZM1.99696 2.49696V18.5039H18.0039V2.49696H1.99696Z" fill="#424242"/>
  <path fill-rule="evenodd" clip-rule="evenodd" d="M16.0004 8.50044L12.0004 8.50043L12.0004 6.50043L16.0004 6.50044L16.0004 8.50044Z" fill="#424242"/>
  <path fill-rule="evenodd" clip-rule="evenodd" d="M16.0004 14.5004L12.0004 14.5004L12.0004 12.5004L16.0004 12.5004L16.0004 14.5004Z" fill="#424242"/>
  <path fill-rule="evenodd" clip-rule="evenodd" d="M10.2075 6.20754L6.00044 10.4147L3.29333 7.70759L4.70754 6.29337L6.00043 7.58626L8.79332 4.79333L10.2075 6.20754Z" fill="#424242"/>
  <path fill-rule="evenodd" clip-rule="evenodd" d="M10.2075 12.2075L6.00044 16.4147L3.29333 13.7076L4.70754 12.2934L6.00043 13.5863L8.79332 10.7933L10.2075 12.2075Z" fill="#424242"/>
</svg>